<?xml version="1.0" encoding="UTF-8" standalone="no"?>
<!DOCTYPE svg PUBLIC "-//W3C//DTD SVG 1.0//EN"
 "http://www.w3.org/TR/2001/REC-SVG-20010904/DTD/svg10.dtd">
<!-- Generated by dot version 1.13 (v16) (Mon August 23, 2004)
     For user: (matt) Matt Youell   Title: osb11    Pages: 1 -->
<svg width="296pt" height="192pt"
 viewBox = "-1 -1 295 191"
 xmlns="http://www.w3.org/2000/svg">
<g id="graph0" class="graph" style="font-family:Times-Roman;font-size:14.00;">
<title>osb11</title>
<g id="node1" class="node"><title>Acme</title>
<ellipse cx="34" cy="22" rx="29" ry="18" style="fill:#ffbe25;stroke:black;"/>
<text text-anchor="middle" x="34" y="27">Acme</text>
</g>
<g id="node2" class="node"><title>Code</title>
<ellipse cx="100" cy="166" rx="27" ry="18" style="fill:lightblue;stroke:black;"/>
<text text-anchor="middle" x="100" y="171">Code</text>
</g>
<g id="node3" class="node"><title>Systems</title>
<ellipse cx="181" cy="166" rx="35" ry="18" style="fill:mistyrose;stroke:black;"/>
<text text-anchor="middle" x="181" y="171">Systems</text>
</g>
<g id="node4" class="node"><title>Data</title>
<ellipse cx="262" cy="166" rx="27" ry="18" style="fill:#b5ee3a;stroke:black;"/>
<text text-anchor="middle" x="262" y="171">Data</text>
</g>
<g id="node5" class="node"><title>GraphViz</title>
<ellipse cx="121" cy="22" rx="40" ry="18" style="fill:none;stroke:black;"/>
<text text-anchor="middle" x="121" y="27">GraphViz</text>
</g>
<g id="node7" class="node"><title>Open-Source</title>
<ellipse cx="61" cy="94" rx="49" ry="18" style="fill:none;stroke:black;"/>
<text text-anchor="middle" x="61" y="99">Open-Source</text>
</g>
<g id="edge2" class="edge"><title>GraphViz-&gt;Open-Source</title>
<path style="fill:none;stroke:black;" d="M107,39C99,48 90,58 83,68"/>
<polygon style="fill:black;stroke:black;" points="85,71 76,76 80,66 85,71"/>
</g>
<g id="node9" class="node"><title>Body Scanner</title>
<ellipse cx="181" cy="94" rx="51" ry="18" style="fill:none;stroke:black;"/>
<text text-anchor="middle" x="181" y="99">Body Scanner</text>
</g>
<g id="edge4" class="edge"><title>GraphViz-&gt;Body Scanner</title>
<path style="fill:none;stroke:black;" d="M135,39C143,48 152,58 159,68"/>
<polygon style="fill:black;stroke:black;" points="162,66 166,76 157,71 162,66"/>
</g>
<g id="edge6" class="edge"><title>Body Scanner-&gt;Code</title>
<path style="fill:none;stroke:black;" d="M162,111C151,121 136,134 124,145"/>
<polygon style="fill:black;stroke:black;" points="126,148 116,151 122,142 126,148"/>
</g>
<g id="edge8" class="edge"><title>Body Scanner-&gt;Systems</title>
<path style="fill:none;stroke:black;" d="M181,112C181,120 181,129 181,138"/>
<polygon style="fill:black;stroke:black;" points="185,138 181,148 178,138 185,138"/>
</g>
<g id="edge10" class="edge"><title>Body Scanner-&gt;Data</title>
<path style="fill:none;stroke:black;" d="M200,111C211,121 226,134 238,145"/>
<polygon style="fill:black;stroke:black;" points="240,142 246,151 236,148 240,142"/>
</g>
</g>
</svg>
